<?xml version="1.0" encoding="UTF-8"?>
<svg version="1.1" xmlns="http://www.w3.org/2000/svg" width="2000" height="609">
<path d="M0 0 C2.7265658 -0.0006707 5.45312447 -0.0049355 8.1796875 -0.00869751 C13.8750451 -0.01412719 19.5702853 -0.00703735 25.265625 0.00732422 C31.81293144 0.02364541 38.35995742 0.01835491 44.90725708 0.001845 C50.56888192 -0.01185005 56.23042324 -0.01365071 61.89205933 -0.00583899 C65.25591459 -0.00120611 68.61953492 -0.00162504 71.98339844 -0.01044846 C104.86875454 -0.07779465 104.86875454 -0.07779465 118.25 7.0234375 C118.91837891 7.37043701 119.58675781 7.71743652 120.27539062 8.07495117 C134.42022803 15.72307159 144.92516542 29.17393377 150 44.3984375 C150.33 29.8784375 150.66 15.3584375 151 0.3984375 C171.79 0.3984375 192.58 0.3984375 214 0.3984375 C214.09046479 53.52122018 214.16205969 106.64398434 214.20426132 159.76682881 C214.20926402 166.04141139 214.21444132 172.31599382 214.21972656 178.59057617 C214.2207758 179.8397091 214.22182505 181.08884204 214.22290608 182.37582748 C214.24030149 202.5897797 214.27183444 222.80368632 214.30861118 243.01761151 C214.34604461 263.76583878 214.36824094 284.51404221 214.37635398 305.26230186 C214.38183675 318.06048418 214.39914082 330.85853759 214.43166587 343.65668022 C214.45284338 352.43815419 214.4591927 361.21956172 214.45400551 370.00105936 C214.45144879 375.0641472 214.45531094 380.12701012 214.4768219 385.19005775 C214.4964059 389.83367264 214.49719375 394.47691309 214.48359558 399.12054586 C214.48191701 400.79241088 214.48689032 402.46430006 214.49953273 404.13611812 C214.63870461 423.69157012 209.94105535 440.89505386 196 455.3984375 C179.26405448 470.07457434 162.1728139 472.86490952 140.72753906 472.73901367 C138.69623833 472.73816618 136.66493668 472.73864493 134.63363647 472.74034119 C129.15096917 472.74119778 123.66850097 472.72362665 118.18587971 472.70261931 C112.44438514 472.68379623 106.70288541 472.68209764 100.96136475 472.67854309 C90.10318505 472.66923913 79.24509656 472.64464772 68.38695693 472.61449462 C56.0193331 472.58089919 43.65170479 472.56445168 31.28404665 472.54940832 C5.85596897 472.51809666 -19.57198377 472.46310523 -45 472.3984375 C-45 451.6084375 -45 430.8184375 -45 409.3984375 C19.68 409.3984375 84.36 409.3984375 151 409.3984375 C151 381.3484375 151 353.2984375 151 324.3984375 C138.24085938 324.43324219 125.48171875 324.46804688 112.3359375 324.50390625 C104.24218567 324.51923879 96.1484444 324.53380535 88.0546875 324.54492188 C75.214156 324.56269992 62.37368371 324.58356241 49.53320312 324.62475586 C40.18018091 324.6547468 30.82720687 324.67403346 21.4741379 324.68070298 C16.52612822 324.68459887 11.57825632 324.69369405 6.63029099 324.71562767 C1.96326517 324.73614629 -2.70356744 324.74224055 -7.37063408 324.73776054 C-9.07407497 324.73857892 -10.77752302 324.74445228 -12.48092461 324.75605392 C-32.26058486 324.88404529 -49.05374049 321.27855068 -64.46484375 307.91015625 C-79.47682984 293.03695585 -84.24187481 275.60286573 -84.40141606 255.09213257 C-84.40676016 252.28008272 -84.39767033 249.46828592 -84.38818359 246.65625 C-84.39225755 244.6094332 -84.39760403 242.56261861 -84.40411377 240.51580811 C-84.41769512 234.99928051 -84.41252691 229.48292277 -84.40297651 223.96639252 C-84.39533203 218.1678576 -84.40243874 212.36933633 -84.40713501 206.57080078 C-84.41257869 196.83688776 -84.40543747 187.10304323 -84.39111328 177.36914062 C-84.3747895 166.14749474 -84.38007899 154.92601243 -84.3965925 143.7043705 C-84.41024701 134.03510968 -84.41210769 124.36589783 -84.40427649 114.69663048 C-84.39962172 108.93674416 -84.39891426 103.17693449 -84.40888596 97.41705322 C-84.41761126 91.99961007 -84.41143293 86.58237593 -84.39420319 81.16495514 C-84.39026788 79.18780106 -84.39132104 77.21062911 -84.39799118 75.23348236 C-84.46405398 53.64563866 -81.63788431 34.71994516 -66 18.3984375 C-46.88703688 0.08601734 -24.90039276 -0.06531374 0 0 Z M-21 63.3984375 C-21 128.7384375 -21 194.0784375 -21 261.3984375 C35.76 261.3984375 92.52 261.3984375 151 261.3984375 C151 196.0584375 151 130.7184375 151 63.3984375 C94.24 63.3984375 37.48 63.3984375 -21 63.3984375 Z " fill="#ffffff" transform="translate(900,124.6015625)"/>
<path d="M0 0 C21.78 0 43.56 0 66 0 C75.63642837 24.82110337 85.26207277 49.64570695 94.8125 74.5 C101.81944349 92.73454528 108.83920002 110.96406789 115.875 129.1875 C116.33202301 130.37126221 116.78904602 131.55502441 117.25991821 132.7746582 C119.57901923 138.78132108 121.8983438 144.7878976 124.21777344 150.79443359 C129.27101378 163.88100198 134.32147223 176.96864432 139.37243652 190.05609131 C140.74566942 193.61422385 142.11892101 197.17234918 143.4921875 200.73046875 C143.94553467 201.90508667 144.39888184 203.07970459 144.8659668 204.28991699 C147.63548866 211.46545166 150.40566429 218.64073357 153.17633057 225.81582642 C162.87777797 250.93938513 172.56888837 276.06683023 182.23205566 301.20513916 C191.51235962 325.34614159 200.82640647 349.47408392 210.14306641 373.60107422 C214.38689144 384.59138005 218.62920439 395.58226955 222.87138367 406.57321072 C224.97705551 412.02872076 227.08293704 417.48414983 229.18902588 422.9394989 C230.02880318 425.11551878 230.86813594 427.29171029 231.70697021 429.46809387 C233.37139589 433.78618629 235.03728739 438.10347804 236.72607422 442.41210938 C237.18643066 443.59095703 237.64678711 444.76980469 238.12109375 445.984375 C238.49548584 446.93538086 238.86987793 447.88638672 239.25561523 448.86621094 C240 451 240 451 240 453 C218.22 453 196.44 453 174 453 C169.06575009 440.29056842 164.13237214 427.58086286 159.20933533 414.86709595 C156.85412143 408.78523026 154.49742534 402.70394901 152.13720703 396.62402344 C149.80508143 390.61575117 147.47812215 384.60550082 145.15466309 378.59387207 C144.2598734 376.28125376 143.36330706 373.96932208 142.46496582 371.65808105 C141.2076306 368.4222833 139.95658221 365.1841227 138.70703125 361.9453125 C138.32982437 360.97878754 137.95261749 360.01226257 137.5639801 359.01644897 C137.22422653 358.13204132 136.88447296 357.24763367 136.53442383 356.33642578 C136.23643387 355.56710724 135.93844391 354.7977887 135.63142395 354.00515747 C135 352 135 352 135 349 C67.68 349 0.36 349 -69 349 C-69.99 352.3 -70.98 355.6 -72 359 C-72.57866576 360.6544596 -73.17704883 362.30251956 -73.81494141 363.93505859 C-74.14083252 364.77483246 -74.46672363 365.61460632 -74.80249023 366.47982788 C-75.32178101 367.80078964 -75.32178101 367.80078964 -75.8515625 369.1484375 C-76.22337646 370.10376373 -76.59519043 371.05908997 -76.97827148 372.04336548 C-78.19027632 375.15531637 -79.40757711 378.26516518 -80.625 381.375 C-81.90003231 384.64349547 -83.17383635 387.91246798 -84.44760132 391.18145752 C-85.31955312 393.41890255 -86.19197324 395.65616511 -87.06484985 397.89324951 C-90.06290966 405.58017295 -93.03870162 413.27540792 -96 420.9765625 C-96.39359711 421.99938324 -96.78719421 423.02220398 -97.19271851 424.07601929 C-98.71105408 428.02197815 -100.22928482 431.96796912 -101.74298096 435.91571045 C-102.77683963 438.61137844 -103.81387038 441.30580587 -104.8515625 444 C-105.15795654 444.80176666 -105.46435059 445.60353333 -105.7800293 446.42959595 C-107.8862717 451.8862717 -107.8862717 451.8862717 -109 453 C-111.02494231 453.09409479 -113.0531987 453.11743122 -115.08032227 453.11352539 C-117.03223228 453.11341209 -117.03223228 453.11341209 -119.02357483 453.11329651 C-120.45451902 453.10818909 -121.88546282 453.10297308 -123.31640625 453.09765625 C-124.7722926 453.09579203 -126.22817957 453.09436815 -127.68406677 453.09336853 C-131.52279379 453.08954365 -135.36148319 453.07971364 -139.20019531 453.06866455 C-143.11457816 453.05844978 -147.02896706 453.05387077 -150.94335938 453.04882812 C-158.62892343 453.03809134 -166.31445645 453.02101529 -174 453 C-173.46562692 449.40055348 -172.82117024 446.11312433 -171.49145508 442.7253418 C-171.18125427 441.92644531 -170.87105347 441.12754883 -170.55145264 440.30444336 C-170.21091858 439.44471924 -169.87038452 438.58499512 -169.51953125 437.69921875 C-169.15941956 436.77608887 -168.79930786 435.85295898 -168.42828369 434.90185547 C-167.64272837 432.89006845 -166.85452267 430.8793148 -166.06399536 428.86947632 C-164.78741571 425.62372221 -163.51766388 422.37537139 -162.24975586 419.1262207 C-160.90032198 415.66830514 -159.55047967 412.21055529 -158.19862366 408.75358582 C-153.57836363 396.93725351 -149.00620164 385.10253556 -144.44174194 373.26455688 C-143.05068639 369.65686147 -141.65884054 366.04947176 -140.2668457 362.44213867 C-133.75534396 345.56511092 -127.2594839 328.68208882 -120.76876831 311.79705811 C-114.23369555 294.79723761 -107.68426883 277.80299902 -101.125 260.8125 C-100.66836975 259.62967438 -100.2117395 258.44684875 -99.74127197 257.22817993 C-96.02948145 247.61378063 -92.31688021 237.99969444 -88.60424805 228.38562012 C-85.36078804 219.9863924 -82.11764614 211.58704196 -78.875 203.1875 C-78.41820862 202.00427155 -77.96141724 200.82104309 -77.49078369 199.60195923 C-70.98144852 182.73940061 -64.48549773 165.87173993 -58 149 C-50.14731263 128.57157576 -42.2770154 108.15000152 -34.39111328 87.734375 C-33.47426864 85.36068296 -32.55743928 82.98698502 -31.640625 80.61328125 C-31.18432709 79.43190582 -30.72802917 78.2505304 -30.25790405 77.03335571 C-27.04286232 68.70704185 -23.83525715 60.37789176 -20.63066483 52.04755211 C-19.11354626 48.10455878 -17.59519317 44.16204066 -16.07680321 40.21953678 C-14.86491271 37.07250524 -13.65414499 33.92505212 -12.44488525 30.77700806 C-11.10858128 27.29844488 -9.76942936 23.82099027 -8.4296875 20.34375 C-8.03900085 19.32447922 -7.64831421 18.30520844 -7.24578857 17.25505066 C-6.87576721 16.29625504 -6.50574585 15.33745941 -6.12451172 14.34960938 C-5.80892303 13.52891968 -5.49333435 12.70822998 -5.16818237 11.8626709 C-3.53854252 7.86918265 -1.7517555 3.94144987 0 0 Z M32 87 C31.76435333 87.61195221 31.52870667 88.22390442 31.28591919 88.85440063 C20.82341011 116.02148251 10.35071754 143.18387213 -0.28018188 170.28561401 C-6.47949444 186.09002045 -12.6222487 201.91576395 -18.74682617 217.74926758 C-25.38558056 234.90592406 -32.11957244 252.02360298 -38.92211914 269.1159668 C-39.26572479 269.98098312 -39.60933044 270.84599945 -39.96334839 271.73722839 C-40.60510255 273.35257954 -41.24827867 274.96736673 -41.89309692 276.58149719 C-43.35674151 279.70056911 -43.35674151 279.70056911 -44 283 C6.49 283 56.98 283 109 283 C104.47129239 270.03167471 104.47129239 270.03167471 99.6171875 257.19921875 C99.32549683 256.45613968 99.03380615 255.71306061 98.73327637 254.94746399 C98.10856911 253.35636278 97.48267901 251.76572552 96.85565186 250.17553711 C95.09443448 245.70710709 93.34436796 241.23430974 91.59375 236.76171875 C91.22196625 235.81223358 90.8501825 234.86274841 90.46713257 233.88449097 C86.05642468 222.60763078 81.71562847 211.30397545 77.375 200 C75.68634308 195.60411089 73.99747124 191.20830437 72.30859375 186.8125 C71.88086166 185.69909744 71.45312958 184.58569489 71.01243591 183.43855286 C66.30119205 171.17717065 61.57872983 158.92012437 56.85113525 146.66503906 C55.92985579 144.27649843 55.00890065 141.88783267 54.08831787 139.49902344 C51.51653547 132.8258263 48.93731182 126.15558166 46.35028076 119.48828125 C45.14294998 116.36929337 43.94187187 113.24800202 42.74283123 110.12582397 C41.73543779 107.50707411 40.7220997 104.89065131 39.70741463 102.27471924 C38.98546437 100.40811542 38.27055226 98.53879433 37.55577087 96.66943359 C37.1197908 95.54875488 36.68381073 94.42807617 36.23461914 93.2734375 C35.65871788 91.77949463 35.65871788 91.77949463 35.07118225 90.25537109 C34.21231901 87.84946374 34.21231901 87.84946374 32 87 Z " fill="#ffffff" transform="translate(194,9)"/>
<path d="M0 0 C9.94377275 -0.41912201 19.88541267 -0.73786724 29.83625317 -0.93261909 C34.45872859 -1.02615777 39.07512026 -1.15267732 43.6940918 -1.35791016 C73.45697984 -2.64618944 73.45697984 -2.64618944 80.89602661 1.68685913 C85.23353215 5.68008594 87.72479305 10.23321054 89.93411255 15.64056396 C91.75046473 19.66121997 94.42959985 23.04646328 97.0625 26.5625 C98.05890973 27.96837117 99.05161703 29.37688066 100.0390625 30.7890625 C100.77237793 31.83175293 100.77237793 31.83175293 101.52050781 32.89550781 C102.50683594 34.2985026 103.49316406 35.7014974 104.47949219 37.10449219 C110.6433473 45.86878716 116.85741881 54.59275544 123.14428711 63.26928711 C127.30294164 69.01573517 131.40045858 74.80302685 135.48046875 80.60546875 C139.11454566 85.7656672 142.79671401 90.8892894 146.5 96 C151.21040657 102.50058483 155.86297608 109.0386388 160.48046875 115.60546875 C164.64735675 121.52223098 168.88200694 127.38824455 173.12915039 133.24755859 C177.42688235 139.18495118 181.66471417 145.16279512 185.8671875 151.16796875 C189.15286358 155.84982447 192.54431388 160.44227103 196 165 C204.23421178 154.82375714 211.91613415 144.21511366 219.42773438 133.49902344 C223.07372131 128.29959071 226.77238967 123.14118756 230.5 118 C234.70704228 112.19446905 238.8759547 106.36478 243 100.5 C249.7921047 90.84476537 256.71820213 81.28794068 263.64550781 71.72949219 C269.47462861 63.68371227 275.28327116 55.62615028 281 47.5 C286.70223342 39.39445451 292.49604561 31.35729044 298.31054688 23.33203125 C301.27210799 19.24404978 304.23008133 15.15347878 307.1875 11.0625 C308.01689087 9.91696655 308.01689087 9.91696655 308.86303711 8.74829102 C309.63272827 7.68372681 309.63272827 7.68372681 310.41796875 6.59765625 C311.09508911 5.66191772 311.09508911 5.66191772 311.78588867 4.70727539 C312.88699554 3.15890613 313.94608661 1.58087009 315 0 C317.54352483 -0.28660203 319.84286964 -0.37857678 322.38720703 -0.34057617 C323.52881287 -0.34123329 323.52881287 -0.34123329 324.69348145 -0.34190369 C327.21518393 -0.33980959 329.73622583 -0.31645001 332.2578125 -0.29296875 C334.00372962 -0.28737499 335.74965144 -0.28310385 337.49557495 -0.28010559 C342.0955704 -0.26863948 346.69528263 -0.23915727 351.29516602 -0.20599365 C355.98710295 -0.17533071 360.67908555 -0.16160835 365.37109375 -0.14648438 C374.58085375 -0.11428913 383.79040334 -0.06307159 393 0 C391.78078912 3.12696509 390.5938556 5.84315998 388.63671875 8.57421875 C388.16878906 9.23228516 387.70085937 9.89035156 387.21875 10.56835938 C386.46078125 11.61733398 386.46078125 11.61733398 385.6875 12.6875 C385.15769531 13.42935547 384.62789062 14.17121094 384.08203125 14.93554688 C382.39423256 17.29489927 380.69839409 19.6482654 379 22 C378.45811035 22.75104004 377.9162207 23.50208008 377.35791016 24.27587891 C375.19346534 27.27425815 373.02765786 30.271636 370.8581543 33.26635742 C367.20134707 38.3183605 363.58733348 43.39847464 360 48.5 C353.2078953 58.15523463 346.28179787 67.71205932 339.35449219 77.27050781 C333.02171736 86.01146795 326.72809656 94.77620234 320.51928711 103.60571289 C316.34744926 109.52979108 312.10686623 115.40240075 307.85546875 121.26953125 C304.20004412 126.32082208 300.58642038 131.39952352 297 136.5 C292.33863251 143.12922712 287.61055569 149.70728537 282.85546875 156.26953125 C279.20004412 161.32082208 275.58642038 166.39952352 272 171.5 C267.87608705 177.36487884 263.70673358 183.19424489 259.5 189 C255.11125291 195.0591748 250.75372123 201.13891449 246.4375 207.25 C245.94894531 207.9409375 245.46039062 208.631875 244.95703125 209.34375 C242.24523044 213.1917802 239.59297494 217.07088032 237 221 C239.20815103 225.62947158 242.10302598 229.71770679 245 233.9375 C245.87785156 235.21947266 245.87785156 235.21947266 246.7734375 236.52734375 C250.80530065 242.372665 255.02886271 247.98983002 259.4140625 253.57421875 C262.58299772 257.6943293 265.46582673 262.00714606 268.375 266.3125 C272.92735763 273.04729377 277.63451886 279.61408463 282.55249023 286.08569336 C286.6372369 291.47455359 290.55027554 296.97041705 294.43212891 302.5065918 C298.06108916 307.6793021 301.73335412 312.81836817 305.4375 317.9375 C305.97681152 318.68298096 306.51612305 319.42846191 307.07177734 320.1965332 C308.71379281 322.46488195 310.35672048 324.73256684 312 327 C318.88325617 336.49766801 325.73384082 346.01432033 332.48291016 355.60791016 C337.71107049 363.02946453 343.032523 370.38265054 348.35888672 377.73388672 C351.61845318 382.23482333 354.8697262 386.74175435 358.12255859 391.24755859 C360.84069523 395.01207565 363.56081405 398.77512708 366.28515625 402.53515625 C372.16006539 410.64854207 377.98632674 418.79164565 383.7355957 426.99462891 C387.5100953 432.36029556 391.43216713 437.59430054 395.453125 442.77734375 C397 445 397 445 397 447 C386.96872885 447.2321761 376.9381013 447.40961829 366.90468597 447.51812172 C362.2450592 447.57021251 357.58727636 447.64080094 352.92871094 447.75439453 C348.42869606 447.86342947 343.93044874 447.92291717 339.42921448 447.94877243 C337.71623406 447.96718454 336.00334555 448.00314399 334.29112244 448.05730057 C320.89169603 448.46407898 320.89169603 448.46407898 316.22209167 444.85003662 C314.17382114 442.3221248 312.57230767 439.84202805 311 437 C310.03320659 435.63416318 309.05318547 434.27741996 308.05078125 432.9375 C307.13508987 431.62704316 306.22238589 430.31449438 305.3125 429 C304.27689663 427.51893306 303.24040794 426.03848486 302.203125 424.55859375 C301.67654297 423.80690918 301.14996094 423.05522461 300.60742188 422.28076172 C297.95638274 418.51921742 295.2609878 414.7900859 292.5625 411.0625 C291.75401611 409.94500366 291.75401611 409.94500366 290.92919922 408.80493164 C289.28689491 406.53606795 287.64362368 404.26790805 286 402 C279.11674383 392.50233199 272.26615918 382.98567967 265.51708984 373.39208984 C260.28892951 365.97053547 254.967477 358.61734946 249.64111328 351.26611328 C246.38154682 346.76517667 243.1302738 342.25824565 239.87744141 337.75244141 C237.15930477 333.98792435 234.43918595 330.22487292 231.71484375 326.46484375 C226.43418937 319.1725115 221.18103823 311.86351747 216 304.5 C211.64526354 298.31882512 207.27676477 292.14779813 202.875 286 C202.318125 285.21560547 201.76125 284.43121094 201.1875 283.62304688 C200.66929687 282.90181641 200.15109375 282.18058594 199.6171875 281.4375 C199.15940918 280.79683594 198.70163086 280.15617187 198.22998047 279.49609375 C197.05204572 277.85648037 197.05204572 277.85648037 195 277 C194.72397949 277.57782227 194.44795898 278.15564453 194.16357422 278.75097656 C192.15515107 282.63297279 189.59652342 286.15141613 187.125 289.75 C186.25488281 291.02037109 186.25488281 291.02037109 185.3671875 292.31640625 C181.23387794 298.30970511 176.93549567 304.15001063 172.52197266 309.93847656 C168.67665466 315.0143467 165.06507399 320.22436795 161.5 325.5 C157.01927941 332.13061503 152.37152525 338.57876504 147.51953125 344.94140625 C143.6753518 350.0165303 140.06436035 355.22542399 136.5 360.5 C132.47736061 366.4527419 128.35636429 372.286806 124 378 C119.08352657 384.45221361 114.47519506 391.07590727 109.92578125 397.79077148 C104.66017512 405.54578694 99.18272545 413.13690348 93.66455078 420.71337891 C90.74788439 424.72005204 87.84238753 428.73478343 84.9375 432.75 C84.40125 433.48871338 83.865 434.22742676 83.3125 434.98852539 C82.55259766 436.03834595 82.55259766 436.03834595 81.77734375 437.109375 C81.33640381 437.71749023 80.89546387 438.32560547 80.44116211 438.95214844 C78.85946278 441.10480878 78.85946278 441.10480878 77.38581848 444.0854187 C75 447 75 447 71.55780029 447.7215271 C70.16715713 447.73885856 68.77586077 447.7230938 67.38574219 447.68115234 C66.24369827 447.68246658 66.24369827 447.68246658 65.07858276 447.68380737 C62.56696239 447.67963362 60.05802744 447.63299784 57.546875 447.5859375 C55.80382751 447.57474445 54.06076112 447.56620478 52.31768799 447.56021118 C47.73376184 447.53732103 43.15097959 447.47839713 38.56750488 447.4119873 C33.88891068 447.35056821 29.2101313 447.32319703 24.53125 447.29296875 C15.35366455 447.22865333 6.17692746 447.12627223 -3 447 C-2.28865298 443.88844832 -1.41935199 441.88351881 0.484375 439.3046875 C1.00088623 438.59795898 1.51739746 437.89123047 2.04956055 437.16308594 C2.61070557 436.40801758 3.17185059 435.65294922 3.75 434.875 C4.93895753 433.25271808 6.1277551 431.63031892 7.31640625 430.0078125 C7.92758301 429.17797852 8.53875977 428.34814453 9.16845703 427.49316406 C12.03162693 423.59571125 14.85926861 419.67283977 17.6875 415.75 C18.23051758 414.99831543 18.77353516 414.24663086 19.33300781 413.47216797 C22.97171733 408.43403935 26.59042745 403.3820546 30.1965332 398.32055664 C33.5674928 393.59364258 36.97022626 388.89009337 40.375 384.1875 C44.62242981 378.31868597 48.83239752 372.42575593 53 366.5 C58.717802 358.37207524 64.52824238 350.31333759 70.35888672 342.26611328 C73.07648163 338.51355215 75.78801939 334.75661955 78.5 331 C81.75869057 326.48608105 85.0186666 321.97312335 88.28515625 317.46484375 C93.56580422 310.17252036 98.8195134 302.8638988 104 295.5 C109.71370051 287.37815439 115.51947472 279.32506432 121.34570312 271.28369141 C131.91423095 256.71307352 131.91423095 256.71307352 142.37890625 242.06787109 C144.50517104 239.06882022 146.66511971 236.10219879 148.875 233.1640625 C149.58039917 232.21321777 149.58039917 232.21321777 150.30004883 231.24316406 C151.20366302 230.02647292 152.11713628 228.81702276 153.04174805 227.61621094 C155.39990607 224.63921918 155.39990607 224.63921918 155.75024414 221.03222656 C154.96740943 218.91172017 154.0524224 217.35610714 152.734375 215.5234375 C152.26330322 214.862229 151.79223145 214.20102051 151.30688477 213.51977539 C150.53622681 212.45811157 150.53622681 212.45811157 149.75 211.375 C149.2149585 210.62790771 148.67991699 209.88081543 148.12866211 209.11108398 C146.42530728 206.73619284 144.71322352 204.36777898 143 202 C141.92286048 200.50413418 140.84603171 199.00804454 139.76953125 197.51171875 C136.5210943 193.0019549 133.26151541 188.50031058 130 184 C123.11735541 174.50317587 116.2657806 164.9884349 109.51928711 155.39428711 C105.88539314 150.23409805 102.20321926 145.11061851 98.5 140 C93.78959343 133.49941517 89.13702392 126.9613612 84.51953125 120.39453125 C80.88545434 115.2343328 77.20328599 110.1107106 73.5 105 C68.78959343 98.49941517 64.13702392 91.9613612 59.51953125 85.39453125 C55.88545434 80.2343328 52.20328599 75.1107106 48.5 70 C43.78959343 63.49941517 39.13702392 56.9613612 34.51953125 50.39453125 C30.88545418 45.23433258 27.20327559 40.11071846 23.5 35 C17.70752132 27.00578835 11.99210443 18.95928226 6.328125 10.87353516 C5.41337276 9.58312915 4.48544469 8.30199604 3.546875 7.02880859 C0 2.20291652 0 2.20291652 0 0 Z " fill="#0073D9" transform="translate(1579,7)"/>
<path d="M0 0 C20.79 0 41.58 0 63 0 C63 90.42 63 180.84 63 274 C119.76 274 176.52 274 235 274 C235 183.58 235 93.16 235 0 C255.79 0 276.58 0 298 0 C298 111.21 298 222.42 298 337 C277.21 337 256.42 337 235 337 C234.67 322.15 234.34 307.3 234 292 C232.35 295.96 230.7 299.92 229 304 C218.57437277 320.76277319 204.95577409 330.99203348 186 336 C179.74585336 337.14878597 173.59095125 337.15463605 167.24414062 337.16113281 C166.07727722 337.16609772 164.91041382 337.17106262 163.70819092 337.17617798 C159.85753787 337.19075109 156.00692607 337.19759465 152.15625 337.203125 C150.82207719 337.20586401 149.48790461 337.20872065 148.1537323 337.21169281 C141.87944395 337.22535117 135.60516851 337.23502439 129.33086634 337.2388947 C122.12939913 337.24336328 114.92812287 337.26086205 107.72671366 337.2898953 C102.13402384 337.31164637 96.54138719 337.32160617 90.94865561 337.32293582 C87.62095554 337.32397487 84.29357706 337.33117727 80.96589661 337.34775543 C57.06563587 337.45829545 36.2613086 336.49643703 18 319 C4.81731419 305.24102192 -0.51548657 288.48811474 -0.36076355 269.73088074 C-0.36332682 268.56821145 -0.3658901 267.40554216 -0.36853105 266.20764047 C-0.37343295 262.35076506 -0.3570353 258.49428991 -0.34057617 254.63745117 C-0.3380533 251.85724137 -0.34007478 249.07703911 -0.34190369 246.29682922 C-0.34346971 240.33126447 -0.33413118 234.36579885 -0.31719017 228.40025902 C-0.29271303 219.77531813 -0.28498603 211.15042474 -0.2812262 202.52545289 C-0.27467532 188.52890438 -0.25475133 174.53240859 -0.22631836 160.53588867 C-0.19874238 146.94702415 -0.17752616 133.358174 -0.16479492 119.76928711 C-0.16400675 118.93036976 -0.16321858 118.09145241 -0.16240653 117.22711333 C-0.15849115 113.01812357 -0.15470009 108.80913372 -0.15097082 104.60014379 C-0.11991739 69.73338235 -0.06463736 34.86671853 0 0 Z " fill="#ffffff" transform="translate(1208,125)"/>
<path d="M0 0 C20.46 0 40.92 0 62 0 C62.33 15.18 62.66 30.36 63 46 C64.65 42.04 66.3 38.08 68 34 C76.34434088 18.76250797 87.31758068 9.00317217 103.63671875 2.97265625 C114.07445612 -0.04592285 124.12536403 -0.32648684 134.9140625 -0.3359375 C136.65506088 -0.3423805 138.39605822 -0.34910992 140.13705444 -0.35610962 C143.7764537 -0.3680351 147.41575839 -0.3717955 151.05517578 -0.37060547 C155.67434091 -0.37040292 160.29288641 -0.39766015 164.91190529 -0.43214989 C168.50689367 -0.45460534 172.10173752 -0.45843731 175.69678879 -0.45738602 C177.39731345 -0.45971578 179.09784376 -0.4683874 180.79829788 -0.48405075 C201.02159667 -0.65285685 218.82888376 3.33806582 233.86328125 17.83984375 C234.56839844 18.55269531 235.27351562 19.26554687 236 20 C236.55042969 20.51691406 237.10085938 21.03382813 237.66796875 21.56640625 C241.44589111 25.4456134 243.80086669 30.09726375 246.25 34.875 C246.76264404 35.86512085 246.76264404 35.86512085 247.28564453 36.87524414 C252.22661661 46.91844075 252.27538449 56.79996172 252.1953125 67.75390625 C252.19157551 69.265618 252.18873179 70.77733219 252.18673706 72.28904724 C252.17915453 76.23950054 252.15955326 80.18980332 252.1373291 84.14019775 C252.11312689 88.89521424 252.10406403 93.65028146 252.09242249 98.4053421 C252.07312492 105.60366561 252.03476526 112.80165983 252 120 C231.21 120 210.42 120 189 120 C189 101.19 189 82.38 189 63 C147.09 63 105.18 63 62 63 C62 153.42 62 243.84 62 337 C41.54 337 21.08 337 0 337 C0 225.79 0 114.58 0 0 Z " fill="#ffffff" transform="translate(496,125)"/>
</svg>
